<?xml version="1.0" encoding="utf-8"?>
<!-- Generator: Adobe Illustrator 22.0.1, SVG Export Plug-In . SVG Version: 6.00 Build 0)  -->
<svg version="1.1" id="Capa_1" xmlns="http://www.w3.org/2000/svg" xmlns:xlink="http://www.w3.org/1999/xlink" x="0px" y="0px"
	 viewBox="0 0 280.3 80.5" style="enable-background:new 0 0 280.3 80.5;" xml:space="preserve">
<style type="text/css">
	.st0{fill:#013171;}
</style>
<g>
	<g>
		<g>
			<path class="st0" d="M3.5,13V1.8H6v9.1h4.4V13H3.5z"/>
			<path class="st0" d="M13.6,13V1.8h2.5v9.1h4.4V13H13.6z"/>
			<path class="st0" d="M23.8,13V1.8h7V4h-4.5v2.2h3.8v2.1h-3.8v2.6h4.7V13H23.8z"/>
			<path class="st0" d="M36.3,13L33,1.8h2.7L37,7c0.2,0.6,0.3,1.2,0.5,1.8c0.1,0.6,0.3,1.2,0.5,1.8H38c0.2-0.6,0.3-1.2,0.4-1.8
				c0.1-0.6,0.3-1.2,0.4-1.8l1.3-5.2h2.6L39.4,13H36.3z"/>
			<path class="st0" d="M43.5,13L47,1.8h3L53.5,13h-2.7l-0.7-2.7h-3.4L46,13H43.5z M47.5,7.4l-0.3,1h2.4l-0.3-1
				c-0.2-0.6-0.3-1.2-0.5-1.8c-0.2-0.6-0.3-1.2-0.4-1.8h-0.1C48.3,4.3,48.1,5,48,5.6C47.8,6.2,47.7,6.8,47.5,7.4z"/>
			<path class="st0" d="M56.9,13V4h-3.1V1.8h8.7V4h-3.1V13H56.9z"/>
			<path class="st0" d="M65.5,13V1.8h7V4H68v2.2h3.8v2.1H68v2.6h4.6V13H65.5z"/>
			<path class="st0" d="M80.9,13V1.8h2.5v4.3h3.9V1.8h2.5V13h-2.5V8.3h-3.9V13H80.9z"/>
			<path class="st0" d="M92.2,13l3.5-11.2h3l3.5,11.2h-2.7l-0.7-2.7h-3.4L94.8,13H92.2z M96.3,7.4l-0.3,1h2.4l-0.3-1
				c-0.2-0.6-0.3-1.2-0.5-1.8c-0.1-0.6-0.3-1.2-0.4-1.8h-0.1C97,4.3,96.9,5,96.7,5.6C96.6,6.2,96.5,6.8,96.3,7.4z"/>
			<path class="st0" d="M108.2,13.2c-0.7,0-1.5-0.1-2.2-0.4c-0.7-0.3-1.4-0.7-1.9-1.2l1.4-1.7c0.4,0.3,0.8,0.6,1.3,0.8
				c0.5,0.2,1,0.3,1.4,0.3c0.5,0,0.9-0.1,1.2-0.3c0.3-0.2,0.4-0.5,0.4-0.8c0-0.2,0-0.3-0.1-0.4c-0.1-0.1-0.2-0.2-0.3-0.3
				c-0.1-0.1-0.3-0.2-0.5-0.3c-0.2-0.1-0.4-0.2-0.7-0.3L106.7,8c-0.3-0.1-0.6-0.3-0.8-0.4c-0.3-0.2-0.5-0.4-0.7-0.6
				c-0.2-0.2-0.4-0.5-0.5-0.9c-0.1-0.3-0.2-0.7-0.2-1.1c0-0.5,0.1-0.9,0.3-1.3c0.2-0.4,0.5-0.8,0.8-1.1c0.4-0.3,0.8-0.5,1.3-0.7
				c0.5-0.2,1-0.3,1.6-0.3c0.7,0,1.3,0.1,1.9,0.4c0.6,0.3,1.2,0.6,1.7,1.1l-1.3,1.6c-0.4-0.3-0.7-0.5-1.1-0.7
				c-0.4-0.2-0.8-0.2-1.2-0.2c-0.4,0-0.8,0.1-1,0.3c-0.3,0.2-0.4,0.4-0.4,0.7c0,0.2,0,0.3,0.1,0.4c0.1,0.1,0.2,0.2,0.4,0.3
				c0.2,0.1,0.3,0.2,0.5,0.3c0.2,0.1,0.4,0.2,0.7,0.3l1.4,0.6c0.7,0.3,1.2,0.7,1.6,1.1c0.4,0.5,0.6,1.1,0.6,1.9
				c0,0.5-0.1,0.9-0.3,1.3c-0.2,0.4-0.5,0.8-0.8,1.1c-0.4,0.3-0.8,0.6-1.3,0.8C109.4,13.1,108.8,13.2,108.2,13.2z"/>
			<path class="st0" d="M117.4,13V4h-3.1V1.8h8.7V4h-3.1V13H117.4z"/>
			<path class="st0" d="M123.9,13l3.5-11.2h3l3.5,11.2h-2.7l-0.7-2.7h-3.4l-0.7,2.7H123.9z M127.9,7.4l-0.3,1h2.4l-0.3-1
				c-0.2-0.6-0.3-1.2-0.5-1.8c-0.1-0.6-0.3-1.2-0.4-1.8h-0.1c-0.1,0.6-0.3,1.2-0.4,1.8C128.2,6.2,128.1,6.8,127.9,7.4z"/>
		</g>
	</g>
	<g>
		<g>
			<g>
				<path class="st0" d="M20.7,34.1l-3.6,3.5c-1.6-1.7-3.3-2.5-4.9-2.5c-0.9,0-1.7,0.3-2.3,0.8c-0.6,0.5-0.9,1.1-0.9,1.7
					c0,0.6,0.3,1.1,0.8,1.7c0.5,0.6,1.5,1.2,3.1,1.8c2.8,1.1,4.7,2.1,5.7,2.9c1,0.8,1.8,1.8,2.3,2.9c0.5,1.1,0.8,2.4,0.8,3.8
					c0,1.4-0.3,2.7-0.9,3.9c-0.6,1.2-1.3,2.1-2.3,2.8c-0.9,0.7-2.2,1.2-4,1.6v5h-3.5v-4.9c-1.6-0.2-3-0.6-4.2-1.2
					c-1.6-0.9-3-2-4.4-3.5l3.5-3.6c2.3,2.4,4.5,3.6,6.6,3.6c1.1,0,2-0.4,2.8-1.1c0.8-0.8,1.2-1.6,1.2-2.7c0-0.9-0.2-1.6-0.7-2.3
					c-0.5-0.6-1.5-1.3-2.9-2c-3-1.4-5-2.5-6-3.3c-1-0.8-1.8-1.7-2.3-2.7c-0.5-1-0.8-2.1-0.8-3.2c0-1.9,0.7-3.5,2-4.8
					c1.4-1.3,3.1-2.1,5.2-2.2v-1.9h3.5v2.1c1.2,0.3,2.2,0.7,3.1,1.2C18.6,32.1,19.6,32.9,20.7,34.1z"/>
			</g>
		</g>
		<g>
			<path class="st0" d="M41.2,75.8c-4.4,0-8-0.7-11-2.1c-3-1.4-5.5-3.2-7.4-5.5l5.7-7.8c1.6,1.6,3.4,2.8,5.3,3.8
				c1.9,1,4,1.5,6.3,1.5c2.6,0,4.7-0.5,6.3-1.6c1.6-1.1,2.3-2.6,2.3-4.6c0-1.2-0.2-2.2-0.6-3.2c-0.4-0.9-1.2-1.7-2.2-2.4
				c-1.1-0.6-2.5-1.1-4.4-1.5c-1.8-0.4-4.2-0.5-7.1-0.5v-8.7c2.4,0,4.4-0.2,6-0.5c1.6-0.3,2.9-0.8,3.9-1.5c1-0.6,1.7-1.4,2.1-2.3
				c0.4-0.9,0.6-1.8,0.6-2.9c0-1.8-0.6-3.3-1.7-4.3c-1.1-1-2.7-1.5-4.9-1.5c-1.9,0-3.6,0.4-5.1,1.3c-1.5,0.8-3.1,2-4.8,3.4l-6.2-7.5
				c2.5-2.1,5-3.8,7.7-5c2.7-1.2,5.7-1.8,9-1.8c2.7,0,5.2,0.3,7.5,1c2.3,0.6,4.2,1.6,5.8,2.8c1.6,1.3,2.8,2.8,3.7,4.6
				c0.9,1.8,1.3,3.9,1.3,6.2c0,2.8-0.8,5.1-2.3,7.1c-1.5,1.9-3.7,3.5-6.6,4.7v0.3c3.1,0.9,5.6,2.4,7.6,4.6c2,2.1,3,5,3,8.4
				c0,2.5-0.5,4.6-1.6,6.6c-1.1,1.9-2.5,3.5-4.3,4.9c-1.8,1.3-3.9,2.3-6.3,3C46.4,75.4,43.8,75.8,41.2,75.8z"/>
			<path class="st0" d="M81.7,75.8c-2.8,0-5.4-0.6-7.8-1.8c-2.3-1.2-4.3-3-6-5.3c-1.6-2.3-2.9-5.2-3.9-8.7c-0.9-3.5-1.4-7.5-1.4-12
				c0-4.5,0.5-8.5,1.4-11.9c0.9-3.4,2.2-6.3,3.9-8.6c1.6-2.3,3.6-4,6-5.2c2.3-1.1,4.9-1.7,7.8-1.7c2.8,0,5.4,0.6,7.8,1.7
				c2.3,1.1,4.3,2.9,6,5.2c1.6,2.3,2.9,5.2,3.8,8.6c0.9,3.4,1.4,7.4,1.4,11.9c0,4.5-0.5,8.5-1.4,12c-0.9,3.5-2.2,6.4-3.8,8.7
				c-1.6,2.3-3.6,4.1-6,5.3C87.2,75.2,84.6,75.8,81.7,75.8z M81.7,66.3c1.1,0,2-0.3,2.9-0.8c0.9-0.5,1.7-1.5,2.3-2.9
				c0.7-1.4,1.2-3.3,1.5-5.6c0.4-2.3,0.5-5.3,0.5-9c0-3.6-0.2-6.6-0.5-8.9c-0.4-2.3-0.9-4.1-1.5-5.4c-0.7-1.3-1.4-2.2-2.3-2.7
				c-0.9-0.5-1.9-0.8-2.9-0.8c-1,0-2,0.3-2.8,0.8c-0.9,0.5-1.7,1.4-2.3,2.7c-0.7,1.3-1.2,3.1-1.6,5.4c-0.4,2.3-0.6,5.3-0.6,8.9
				c0,3.6,0.2,6.6,0.6,9c0.4,2.3,0.9,4.2,1.6,5.6c0.7,1.4,1.5,2.4,2.3,2.9C79.8,66,80.7,66.3,81.7,66.3z"/>
			<path class="st0" d="M122.3,75.8c-2.8,0-5.4-0.6-7.8-1.8c-2.3-1.2-4.3-3-6-5.3c-1.6-2.3-2.9-5.2-3.8-8.7c-0.9-3.5-1.4-7.5-1.4-12
				c0-4.5,0.5-8.5,1.4-11.9c0.9-3.4,2.2-6.3,3.8-8.6c1.6-2.3,3.6-4,6-5.2c2.3-1.1,4.9-1.7,7.8-1.7c2.8,0,5.4,0.6,7.8,1.7
				c2.3,1.1,4.3,2.9,6,5.2c1.6,2.3,2.9,5.2,3.9,8.6c0.9,3.4,1.4,7.4,1.4,11.9c0,4.5-0.5,8.5-1.4,12c-0.9,3.5-2.2,6.4-3.9,8.7
				c-1.6,2.3-3.6,4.1-6,5.3C127.7,75.2,125.1,75.8,122.3,75.8z M122.3,66.3c1.1,0,2-0.3,2.9-0.8c0.9-0.5,1.7-1.5,2.3-2.9
				c0.7-1.4,1.2-3.3,1.5-5.6c0.4-2.3,0.5-5.3,0.5-9c0-3.6-0.2-6.6-0.5-8.9c-0.4-2.3-0.9-4.1-1.5-5.4c-0.7-1.3-1.5-2.2-2.3-2.7
				c-0.9-0.5-1.9-0.8-2.9-0.8c-1,0-2,0.3-2.8,0.8c-0.9,0.5-1.7,1.4-2.3,2.7c-0.7,1.3-1.2,3.1-1.6,5.4c-0.4,2.3-0.6,5.3-0.6,8.9
				c0,3.6,0.2,6.6,0.6,9c0.4,2.3,0.9,4.2,1.6,5.6c0.7,1.4,1.4,2.4,2.3,2.9C120.3,66,121.3,66.3,122.3,66.3z"/>
			<path class="st0" d="M149.9,75.8c-2.1,0-3.9-0.7-5.3-2.2c-1.4-1.5-2.1-3.3-2.1-5.5c0-2.2,0.7-4.1,2.1-5.6
				c1.4-1.5,3.2-2.2,5.3-2.2c2.1,0,3.9,0.7,5.3,2.2c1.4,1.5,2.1,3.3,2.1,5.6c0,2.2-0.7,4-2.1,5.5C153.8,75.1,152,75.8,149.9,75.8z"
				/>
			<path class="st0" d="M177.5,75.8c-2.8,0-5.4-0.6-7.8-1.8c-2.3-1.2-4.3-3-6-5.3c-1.6-2.3-2.9-5.2-3.8-8.7c-0.9-3.5-1.4-7.5-1.4-12
				c0-4.5,0.5-8.5,1.4-11.9c0.9-3.4,2.2-6.3,3.8-8.6c1.6-2.3,3.6-4,6-5.2c2.3-1.1,4.9-1.7,7.8-1.7c2.8,0,5.4,0.6,7.8,1.7
				c2.3,1.1,4.3,2.9,6,5.2c1.6,2.3,2.9,5.2,3.9,8.6c0.9,3.4,1.4,7.4,1.4,11.9c0,4.5-0.5,8.5-1.4,12c-0.9,3.5-2.2,6.4-3.9,8.7
				c-1.6,2.3-3.6,4.1-6,5.3C182.9,75.2,180.4,75.8,177.5,75.8z M177.5,66.3c1.1,0,2-0.3,2.9-0.8c0.9-0.5,1.7-1.5,2.3-2.9
				c0.7-1.4,1.2-3.3,1.5-5.6c0.4-2.3,0.5-5.3,0.5-9c0-3.6-0.2-6.6-0.5-8.9c-0.4-2.3-0.9-4.1-1.5-5.4c-0.7-1.3-1.5-2.2-2.3-2.7
				c-0.9-0.5-1.9-0.8-2.9-0.8c-1,0-2,0.3-2.8,0.8c-0.9,0.5-1.7,1.4-2.3,2.7c-0.7,1.3-1.2,3.1-1.6,5.4c-0.4,2.3-0.6,5.3-0.6,8.9
				c0,3.6,0.2,6.6,0.6,9c0.4,2.3,0.9,4.2,1.6,5.6c0.7,1.4,1.4,2.4,2.3,2.9C175.6,66,176.5,66.3,177.5,66.3z"/>
			<path class="st0" d="M218,75.8c-2.8,0-5.4-0.6-7.8-1.8c-2.3-1.2-4.3-3-6-5.3c-1.6-2.3-2.9-5.2-3.8-8.7c-0.9-3.5-1.4-7.5-1.4-12
				c0-4.5,0.5-8.5,1.4-11.9c0.9-3.4,2.2-6.3,3.8-8.6c1.6-2.3,3.6-4,6-5.2c2.3-1.1,4.9-1.7,7.8-1.7c2.8,0,5.4,0.6,7.8,1.7
				c2.3,1.1,4.3,2.9,6,5.2c1.6,2.3,2.9,5.2,3.9,8.6c0.9,3.4,1.4,7.4,1.4,11.9c0,4.5-0.5,8.5-1.4,12c-0.9,3.5-2.2,6.4-3.9,8.7
				c-1.6,2.3-3.6,4.1-6,5.3C223.5,75.2,220.9,75.8,218,75.8z M218,66.3c1.1,0,2-0.3,2.9-0.8c0.9-0.5,1.7-1.5,2.3-2.9
				c0.7-1.4,1.2-3.3,1.5-5.6c0.4-2.3,0.5-5.3,0.5-9c0-3.6-0.2-6.6-0.5-8.9c-0.4-2.3-0.9-4.1-1.5-5.4c-0.7-1.3-1.5-2.2-2.3-2.7
				c-0.9-0.5-1.9-0.8-2.9-0.8c-1,0-2,0.3-2.8,0.8c-0.9,0.5-1.7,1.4-2.3,2.7c-0.7,1.3-1.2,3.1-1.6,5.4c-0.4,2.3-0.6,5.3-0.6,8.9
				c0,3.6,0.2,6.6,0.6,9c0.4,2.3,0.9,4.2,1.6,5.6c0.7,1.4,1.5,2.4,2.3,2.9C216.1,66,217,66.3,218,66.3z"/>
			<path class="st0" d="M258.5,75.8c-2.8,0-5.4-0.6-7.8-1.8c-2.3-1.2-4.3-3-6-5.3c-1.6-2.3-2.9-5.2-3.9-8.7c-0.9-3.5-1.4-7.5-1.4-12
				c0-4.5,0.5-8.5,1.4-11.9c0.9-3.4,2.2-6.3,3.9-8.6c1.6-2.3,3.6-4,6-5.2c2.3-1.1,4.9-1.7,7.8-1.7c2.8,0,5.4,0.6,7.8,1.7
				c2.3,1.1,4.3,2.9,6,5.2c1.6,2.3,2.9,5.2,3.9,8.6c0.9,3.4,1.4,7.4,1.4,11.9c0,4.5-0.5,8.5-1.4,12c-0.9,3.5-2.2,6.4-3.9,8.7
				c-1.6,2.3-3.6,4.1-6,5.3C264,75.2,261.4,75.8,258.5,75.8z M258.5,66.3c1.1,0,2-0.3,2.9-0.8c0.9-0.5,1.7-1.5,2.3-2.9
				c0.7-1.4,1.2-3.3,1.5-5.6c0.4-2.3,0.5-5.3,0.5-9c0-3.6-0.2-6.6-0.5-8.9c-0.4-2.3-0.9-4.1-1.5-5.4c-0.7-1.3-1.5-2.2-2.3-2.7
				c-0.9-0.5-1.9-0.8-2.9-0.8c-1,0-2,0.3-2.8,0.8c-0.9,0.5-1.7,1.4-2.3,2.7c-0.7,1.3-1.2,3.1-1.6,5.4c-0.4,2.3-0.6,5.3-0.6,8.9
				c0,3.6,0.2,6.6,0.6,9c0.4,2.3,0.9,4.2,1.6,5.6c0.7,1.4,1.4,2.4,2.3,2.9C256.6,66,257.5,66.3,258.5,66.3z"/>
		</g>
	</g>
</g>
</svg>
