<?xml version="1.0" encoding="UTF-8"?>
<!-- Generator: Adobe Illustrator 22.0.1, SVG Export Plug-In . SVG Version: 6.00 Build 0)  -->
<svg version="1.1" id="Capa_1" xmlns="http://www.w3.org/2000/svg" xmlns:xlink="http://www.w3.org/1999/xlink" x="0px" y="0px" viewBox="0 0 601 198.4" style="enable-background:new 0 0 601 198.4;" xml:space="preserve">
<style type="text/css">
	.st0{fill:#013171;}
	.st1{fill:#FF182C;}
</style>
<g>
	<g>
		<g>
			<path class="st0" d="M3.2,35.4V10.6h8.5c1.4,0,2.7,0.1,3.8,0.4c1.2,0.3,2.2,0.7,3.1,1.3s1.6,1.4,2.1,2.5c0.5,1,0.8,2.3,0.8,3.8     c0,1.4-0.3,2.7-0.8,3.8c-0.5,1.1-1.2,1.9-2.1,2.6s-1.9,1.2-3.1,1.5S13.1,27,11.8,27h-3v8.4H3.2z M8.8,22.5h2.7c3,0,4.6-1.3,4.6-4     c0-1.3-0.4-2.2-1.2-2.7c-0.8-0.5-2-0.8-3.5-0.8H8.8V22.5z"/>
			<path class="st0" d="M20.8,35.4l7.8-24.8h6.7L43,35.4h-5.9l-1.5-5.9H28l-1.5,5.9H20.8z M29.7,22.8l-0.6,2.3h5.3l-0.6-2.3     c-0.4-1.2-0.7-2.6-1-4s-0.7-2.7-1-4h-0.2c-0.3,1.3-0.6,2.7-0.9,4.1C30.4,20.3,30.1,21.6,29.7,22.8z"/>
			<path class="st0" d="M45.7,35.4V10.6h8.9c1.3,0,2.6,0.1,3.7,0.4c1.2,0.3,2.2,0.7,3,1.3c0.9,0.6,1.5,1.4,2.1,2.4     c0.5,1,0.8,2.2,0.8,3.7c0,1.8-0.4,3.3-1.2,4.5s-1.9,2.1-3.2,2.6l5.6,9.9h-6.3l-4.8-8.9h-3.1v8.9H45.7z M51.3,22h2.9     c1.5,0,2.6-0.3,3.4-0.9c0.8-0.6,1.2-1.5,1.2-2.8c0-1.2-0.4-2.1-1.2-2.6S55.7,15,54.2,15h-2.9V22z"/>
			<path class="st0" d="M65.5,35.4l7.8-24.8H80l7.8,24.8h-5.9l-1.5-5.9h-7.6l-1.5,5.9H65.5z M74.5,22.8l-0.6,2.3h5.3l-0.6-2.3     c-0.4-1.2-0.7-2.6-1-4s-0.7-2.7-1-4h-0.2c-0.3,1.3-0.6,2.7-0.9,4.1C75.2,20.3,74.9,21.6,74.5,22.8z"/>
			<path class="st0" d="M102.9,35.4V15.3h-6.8v-4.7h19.3v4.7h-6.8v20.1H102.9z"/>
			<path class="st0" d="M128.2,35.8c-1.7,0-3.2-0.3-4.6-0.9c-1.4-0.6-2.6-1.5-3.6-2.6c-1-1.1-1.8-2.5-2.3-4.1s-0.8-3.4-0.8-5.4     s0.3-3.8,0.8-5.4s1.3-2.9,2.3-4s2.2-1.9,3.6-2.5s2.9-0.9,4.6-0.9s3.2,0.3,4.6,0.9c1.4,0.6,2.6,1.4,3.6,2.5s1.8,2.4,2.3,4     s0.8,3.4,0.8,5.4s-0.3,3.8-0.8,5.4s-1.3,3-2.3,4.1c-1,1.1-2.2,2-3.6,2.6C131.4,35.5,129.9,35.8,128.2,35.8z M128.2,31     c1.7,0,3-0.7,4-2.2s1.5-3.4,1.5-6c0-2.5-0.5-4.4-1.5-5.8s-2.3-2.1-4-2.1s-3,0.7-4,2.1s-1.5,3.3-1.5,5.8s0.5,4.5,1.5,6     C125.1,30.3,126.5,31,128.2,31z"/>
			<path class="st0" d="M144.1,35.4V10.6h7c1.9,0,3.6,0.2,5.1,0.7s2.8,1.2,3.9,2.2c1.1,1,1.9,2.3,2.5,3.8s0.9,3.4,0.9,5.5     s-0.3,4-0.9,5.6c-0.6,1.6-1.4,2.9-2.5,3.9c-1.1,1-2.3,1.8-3.8,2.3s-3.1,0.8-5,0.8C151.3,35.4,144.1,35.4,144.1,35.4z M149.7,30.9     h1.1c1.1,0,2-0.1,2.9-0.4s1.6-0.7,2.2-1.4c0.6-0.6,1.1-1.4,1.4-2.5c0.3-1,0.5-2.3,0.5-3.8s-0.2-2.7-0.5-3.7s-0.8-1.8-1.4-2.4     c-0.6-0.6-1.3-1-2.2-1.3s-1.8-0.4-2.9-0.4h-1.1V30.9z"/>
			<path class="st0" d="M178.3,35.8c-1.7,0-3.2-0.3-4.6-0.9c-1.4-0.6-2.6-1.5-3.6-2.6c-1-1.1-1.8-2.5-2.3-4.1s-0.8-3.4-0.8-5.4     s0.3-3.8,0.8-5.4s1.3-2.9,2.3-4s2.2-1.9,3.6-2.5c1.4-0.6,2.9-0.9,4.6-0.9c1.7,0,3.2,0.3,4.6,0.9c1.4,0.6,2.6,1.4,3.6,2.5     s1.8,2.4,2.3,4s0.8,3.4,0.8,5.4s-0.3,3.8-0.8,5.4s-1.3,3-2.3,4.1c-1,1.1-2.2,2-3.6,2.6C181.5,35.5,180,35.8,178.3,35.8z      M178.3,31c1.7,0,3-0.7,4-2.2s1.5-3.4,1.5-6c0-2.5-0.5-4.4-1.5-5.8s-2.3-2.1-4-2.1s-3,0.7-4,2.1s-1.5,3.3-1.5,5.8s0.5,4.5,1.5,6     S176.6,31,178.3,31z"/>
			<path class="st0" d="M201.8,35.4V10.6h15.5v4.7h-9.9v5h8.5V25h-8.5v5.7h10.3v4.7H201.8z"/>
			<path class="st0" d="M230.2,35.8c-1.6,0-3.2-0.3-4.9-0.9c-1.6-0.6-3.1-1.5-4.3-2.7l3.2-3.8c0.9,0.8,1.9,1.4,3,1.9     s2.1,0.7,3.2,0.7c1.2,0,2-0.2,2.6-0.6s0.9-1,0.9-1.8c0-0.4-0.1-0.7-0.2-1c-0.2-0.3-0.4-0.5-0.7-0.7s-0.7-0.4-1.1-0.6     c-0.4-0.2-0.9-0.4-1.5-0.6l-3.2-1.4c-0.6-0.3-1.3-0.6-1.8-1c-0.6-0.4-1.1-0.9-1.6-1.4s-0.8-1.2-1.1-1.9c-0.3-0.7-0.4-1.5-0.4-2.5     s0.2-2,0.6-2.9c0.4-0.9,1-1.7,1.8-2.4s1.7-1.2,2.8-1.6c1.1-0.4,2.3-0.6,3.6-0.6c1.4,0,2.9,0.3,4.3,0.8c1.4,0.6,2.6,1.4,3.7,2.4     l-2.9,3.5c-0.8-0.6-1.6-1.1-2.4-1.5c-0.8-0.3-1.7-0.5-2.7-0.5s-1.7,0.2-2.3,0.6c-0.6,0.4-0.9,0.9-0.9,1.7c0,0.4,0.1,0.7,0.3,1     s0.5,0.5,0.8,0.7s0.7,0.4,1.2,0.6s1,0.4,1.5,0.6l3.2,1.3c1.5,0.6,2.7,1.4,3.6,2.5c0.9,1.1,1.3,2.5,1.3,4.2c0,1-0.2,2-0.6,3     c-0.4,0.9-1,1.7-1.8,2.4s-1.8,1.3-2.9,1.7C233,35.6,231.7,35.8,230.2,35.8z"/>
			<path class="st0" d="M253.9,35.8c-1.7,0-3.2-0.3-4.6-0.9c-1.4-0.6-2.6-1.5-3.6-2.6c-1-1.1-1.8-2.5-2.3-4.1s-0.8-3.4-0.8-5.4     s0.3-3.8,0.8-5.4s1.3-2.9,2.3-4s2.2-1.9,3.6-2.5c1.4-0.6,2.9-0.9,4.6-0.9c1.7,0,3.2,0.3,4.6,0.9c1.4,0.6,2.6,1.4,3.6,2.5     s1.8,2.4,2.3,4s0.8,3.4,0.8,5.4s-0.3,3.8-0.8,5.4s-1.3,3-2.3,4.1c-1,1.1-2.2,2-3.6,2.6C257.1,35.5,255.5,35.8,253.9,35.8z      M253.9,31c1.7,0,3-0.7,4-2.2s1.5-3.4,1.5-6c0-2.5-0.5-4.4-1.5-5.8s-2.3-2.1-4-2.1s-3,0.7-4,2.1s-1.5,3.3-1.5,5.8s0.5,4.5,1.5,6     C250.8,30.3,252.2,31,253.9,31z"/>
			<path class="st0" d="M295.6,42.3c-1.3,0-2.5-0.2-3.7-0.5c-1.1-0.3-2.1-0.8-3-1.4c-0.9-0.6-1.7-1.3-2.4-2.1     c-0.7-0.8-1.2-1.7-1.7-2.7c-1.3-0.3-2.5-0.8-3.6-1.5s-2-1.6-2.8-2.7c-0.8-1.1-1.3-2.4-1.8-3.8c-0.4-1.4-0.6-3-0.6-4.8     c0-2,0.3-3.8,0.8-5.4s1.3-2.9,2.3-4s2.2-1.9,3.6-2.5s2.9-0.9,4.6-0.9s3.2,0.3,4.6,0.9c1.4,0.6,2.6,1.4,3.6,2.5s1.8,2.4,2.3,4     s0.8,3.4,0.8,5.4c0,3.3-0.7,6.1-2.1,8.3c-1.4,2.2-3.3,3.6-5.7,4.3c0.6,0.9,1.4,1.5,2.4,1.9s2,0.6,3.1,0.6c0.5,0,1,0,1.5-0.1     s0.9-0.2,1.2-0.3l1,4.1c-0.5,0.2-1.1,0.4-1.8,0.6C297.4,42.2,296.6,42.3,295.6,42.3z M287.4,31.3c1.7,0,3-0.7,4-2.2     s1.5-3.5,1.5-6.2c0-2.5-0.5-4.4-1.5-5.8s-2.3-2.1-4-2.1s-3,0.7-4,2.1s-1.5,3.3-1.5,5.8c0,2.7,0.5,4.7,1.5,6.2     C284.4,30.5,285.7,31.3,287.4,31.3z"/>
			<path class="st0" d="M313.1,35.8c-3.2,0-5.7-1-7.4-2.9c-1.7-1.9-2.5-4.9-2.5-9.1V10.6h5.6v13.9c0,2.4,0.4,4.1,1.1,5.1     s1.8,1.4,3.2,1.4c1.4,0,2.5-0.5,3.2-1.4c0.8-1,1.1-2.7,1.1-5.1V10.6h5.4v13.3c0,4.2-0.8,7.2-2.5,9.1     C318.8,34.9,316.3,35.8,313.1,35.8z"/>
			<path class="st0" d="M328.6,35.4V10.6h15.5v4.7h-9.9v5h8.5V25h-8.5v5.7h10.3v4.7H328.6z"/>
			<path class="st0" d="M375.3,42.3c-1.3,0-2.5-0.2-3.7-0.5c-1.1-0.3-2.1-0.8-3-1.4c-0.9-0.6-1.7-1.3-2.4-2.1     c-0.7-0.8-1.2-1.7-1.7-2.7c-1.3-0.3-2.5-0.8-3.6-1.5s-2-1.6-2.8-2.7c-0.8-1.1-1.3-2.4-1.8-3.8c-0.4-1.4-0.6-3-0.6-4.8     c0-2,0.3-3.8,0.8-5.4s1.3-2.9,2.3-4s2.2-1.9,3.6-2.5s2.9-0.9,4.6-0.9s3.2,0.3,4.6,0.9c1.4,0.6,2.6,1.4,3.6,2.5s1.8,2.4,2.3,4     s0.8,3.4,0.8,5.4c0,3.3-0.7,6.1-2.1,8.3c-1.4,2.2-3.3,3.6-5.8,4.3c0.6,0.9,1.4,1.5,2.4,1.9s2,0.6,3.1,0.6c0.5,0,1,0,1.5-0.1     s0.9-0.2,1.2-0.3l1,4.1c-0.5,0.2-1.1,0.4-1.8,0.6C377.1,42.2,376.3,42.3,375.3,42.3z M367.1,31.3c1.7,0,3-0.7,4-2.2     s1.5-3.5,1.5-6.2c0-2.5-0.5-4.4-1.5-5.8s-2.3-2.1-4-2.1s-3,0.7-4,2.1s-1.5,3.3-1.5,5.8c0,2.7,0.5,4.7,1.5,6.2     C364.1,30.5,365.4,31.3,367.1,31.3z"/>
			<path class="st0" d="M392.8,35.8c-3.2,0-5.7-1-7.4-2.9c-1.7-1.9-2.6-4.9-2.6-9.1V10.6h5.6v13.9c0,2.4,0.4,4.1,1.1,5.1     s1.8,1.4,3.2,1.4c1.4,0,2.5-0.5,3.2-1.4c0.8-1,1.1-2.7,1.1-5.1V10.6h5.4v13.3c0,4.2-0.8,7.2-2.5,9.1     C398.4,34.9,396,35.8,392.8,35.8z"/>
			<path class="st0" d="M408.3,35.4V10.6h15.5v4.7h-9.9v5h8.5V25h-8.5v5.7h10.3v4.7H408.3z"/>
			<path class="st0" d="M429.1,35.4V10.6h8.9c1.3,0,2.6,0.1,3.7,0.4c1.2,0.3,2.2,0.7,3,1.3c0.9,0.6,1.5,1.4,2.1,2.4     c0.5,1,0.8,2.2,0.8,3.7c0,1.8-0.4,3.3-1.2,4.5c-0.8,1.2-1.9,2.1-3.2,2.6l5.6,9.9h-6.3l-4.8-8.9h-3.1v8.9H429.1z M434.7,22h2.9     c1.5,0,2.6-0.3,3.4-0.9s1.2-1.5,1.2-2.8c0-1.2-0.4-2.1-1.2-2.6c-0.8-0.5-1.9-0.7-3.4-0.7h-2.9V22z"/>
			<path class="st0" d="M452.4,35.4V10.6H468v4.7h-10v5h8.5V25H458v5.7h10.3v4.7H452.4z M460.1,9.5l-2.5-2.8l6.5-5.3l3,3.6     L460.1,9.5z"/>
			<path class="st0" d="M480.8,35.8c-1.6,0-3.2-0.3-4.9-0.9c-1.6-0.6-3.1-1.5-4.3-2.7l3.2-3.8c0.9,0.8,1.9,1.4,3,1.9     s2.1,0.7,3.2,0.7c1.2,0,2-0.2,2.6-0.6s0.9-1,0.9-1.8c0-0.4-0.1-0.7-0.2-1c-0.2-0.3-0.4-0.5-0.7-0.7c-0.3-0.2-0.7-0.4-1.1-0.6     s-0.9-0.4-1.5-0.6l-3.2-1.4c-0.6-0.3-1.3-0.6-1.8-1c-0.6-0.4-1.1-0.9-1.6-1.4s-0.8-1.2-1.1-1.9c-0.3-0.7-0.4-1.5-0.4-2.5     s0.2-2,0.6-2.9s1-1.7,1.8-2.4s1.7-1.2,2.8-1.6c1.1-0.4,2.3-0.6,3.6-0.6c1.4,0,2.9,0.3,4.3,0.8c1.4,0.6,2.6,1.4,3.7,2.4l-2.9,3.5     c-0.8-0.6-1.6-1.1-2.4-1.5c-0.8-0.3-1.7-0.5-2.7-0.5s-1.7,0.2-2.3,0.6c-0.6,0.4-0.9,0.9-0.9,1.7c0,0.4,0.1,0.7,0.3,1     c0.2,0.3,0.5,0.5,0.8,0.7s0.7,0.4,1.2,0.6s1,0.4,1.5,0.6l3.2,1.3c1.5,0.6,2.7,1.4,3.6,2.5s1.3,2.5,1.3,4.2c0,1-0.2,2-0.6,3     c-0.4,0.9-1,1.7-1.8,2.4s-1.8,1.3-3,1.7C483.6,35.6,482.3,35.8,480.8,35.8z"/>
			<path class="st0" d="M506.2,35.4v-8.8l-7.5-16h6l2.2,5.7c0.4,0.9,0.7,1.8,1,2.7c0.3,0.9,0.7,1.8,1,2.8h0.2c0.4-1,0.7-1.9,1-2.8     s0.7-1.8,1-2.7l2.2-5.7h5.9l-7.5,16v8.8H506.2z"/>
			<path class="st0" d="M529.5,35.4V10.6h6.1l4,11c0.3,0.7,0.5,1.5,0.7,2.3s0.5,1.5,0.7,2.3h0.2c0.3-0.8,0.5-1.5,0.7-2.3     s0.5-1.5,0.7-2.3l3.9-11h6.1v24.8h-5.1v-9.1c0-0.6,0-1.3,0.1-2c0-0.7,0.1-1.5,0.2-2.2c0.1-0.7,0.2-1.5,0.2-2.2     c0.1-0.7,0.2-1.4,0.2-2H548l-2,5.9l-3.5,9.5h-3.1l-3.5-9.5l-2-5.9h-0.2c0.1,0.6,0.2,1.3,0.2,2c0.1,0.7,0.2,1.5,0.2,2.2     c0.1,0.7,0.1,1.5,0.2,2.2c0.1,0.7,0.1,1.4,0.1,2v9.1H529.5z"/>
			<path class="st0" d="M555.3,35.4l7.8-24.8h6.7l7.8,24.8h-5.9l-1.5-5.9h-7.6l-1.5,5.9H555.3z M565.9,9.5l-2.5-2.8l6.5-5.3l3,3.6     L565.9,9.5z M564.3,22.8l-0.6,2.3h5.3l-0.6-2.3c-0.4-1.2-0.7-2.6-1-4s-0.7-2.7-1-4h-0.1c-0.3,1.3-0.6,2.7-0.9,4.1     C565,20.3,564.6,21.6,564.3,22.8z"/>
			<path class="st0" d="M587.8,35.8c-1.6,0-3.2-0.3-4.9-0.9c-1.6-0.6-3.1-1.5-4.3-2.7l3.2-3.8c0.9,0.8,1.9,1.4,2.9,1.9     c1.1,0.5,2.1,0.7,3.2,0.7c1.2,0,2-0.2,2.6-0.6s0.9-1,0.9-1.8c0-0.4-0.1-0.7-0.2-1c-0.2-0.3-0.4-0.5-0.7-0.7s-0.7-0.4-1.1-0.6     c-0.4-0.2-0.9-0.4-1.5-0.6l-3.2-1.4c-0.6-0.3-1.3-0.6-1.8-1c-0.6-0.4-1.1-0.9-1.6-1.4s-0.8-1.2-1.1-1.9c-0.3-0.7-0.4-1.5-0.4-2.5     s0.2-2,0.6-2.9c0.4-0.9,1-1.7,1.8-2.4s1.7-1.2,2.8-1.6c1.1-0.4,2.3-0.6,3.6-0.6c1.4,0,2.9,0.3,4.3,0.8c1.4,0.6,2.6,1.4,3.7,2.4     l-2.9,3.5c-0.8-0.6-1.6-1.1-2.4-1.5c-0.8-0.3-1.7-0.5-2.7-0.5s-1.7,0.2-2.3,0.6c-0.6,0.4-0.9,0.9-0.9,1.7c0,0.4,0.1,0.7,0.3,1     s0.5,0.5,0.8,0.7s0.7,0.4,1.2,0.6s1,0.4,1.5,0.6l3.2,1.3c1.5,0.6,2.7,1.4,3.6,2.5c0.9,1.1,1.3,2.5,1.3,4.2c0,1-0.2,2-0.6,3     c-0.4,0.9-1,1.7-1.8,2.4s-1.8,1.3-3,1.7C590.6,35.6,589.3,35.8,587.8,35.8z"/>
		</g>
	</g>
	<g>
		<g>
			<path class="st0" d="M72.6,189.2v-124h35c9.5,0,18.1,1.2,25.7,3.6s14.1,6.1,19.6,11.1s9.6,11.4,12.6,19.1     c2.9,7.7,4.4,16.9,4.4,27.6s-1.5,19.9-4.4,27.8c-2.9,7.9-7,14.4-12.4,19.5c-5.3,5.1-11.7,9-19.1,11.5c-7.4,2.5-15.7,3.8-24.8,3.8     H72.6z M100.5,166.5h5.3c5.3,0,10.1-0.7,14.5-2.1c4.3-1.4,8-3.6,11-6.8c3-3.1,5.4-7.2,7.1-12.3c1.7-5.1,2.6-11.3,2.6-18.8     c0-7.4-0.9-13.5-2.6-18.5c-1.7-5-4.1-9-7.1-12s-6.7-5.1-11-6.4s-9.1-1.9-14.5-1.9h-5.3V166.5z"/>
			<path class="st0" d="M169,189.2l38.8-124h33.7l38.8,124h-29.7l-7.6-29.5h-37.9l-7.6,29.5H169z M213.9,126.4l-3,11.4h26.4     l-2.9-11.4c-1.8-6.2-3.5-12.8-5.1-19.8c-1.7-7-3.3-13.7-4.9-20.2h-0.8c-1.5,6.6-3.1,13.3-4.7,20.3     C217.4,113.6,215.7,120.2,213.9,126.4z"/>
			<path class="st0" d="M287.2,189.2v-124h28v100.4h49.1v23.6L287.2,189.2L287.2,189.2z"/>
			<path class="st0" d="M379,189.2v-124h77.6v23.6H407v24.9h42.2V137H407v28.5h51.6v23.6L379,189.2L379,189.2z"/>
			<path class="st1" d="M494.3,191.5c-4.8,0-8.8-1.7-12.1-5c-3.2-3.4-4.9-7.5-4.9-12.5c0-5.1,1.6-9.3,4.9-12.6c3.2-3.4,7.3-5,12.1-5     c4.8,0,8.8,1.7,12.1,5c3.2,3.4,4.9,7.6,4.9,12.6c0,4.9-1.6,9.1-4.9,12.5C503.2,189.8,499.1,191.5,494.3,191.5z M485.2,145.2     l-4-58.2l-1-25.3h28.2l-1,25.3l-4,58.2H485.2z"/>
		</g>
	</g>
</g>
</svg>