<?xml version="1.0" encoding="utf-8"?>
<!-- Generator: Adobe Illustrator 22.0.1, SVG Export Plug-In . SVG Version: 6.00 Build 0)  -->
<svg version="1.1" id="Capa_1" xmlns="http://www.w3.org/2000/svg" xmlns:xlink="http://www.w3.org/1999/xlink" x="0px" y="0px"
	 viewBox="0 0 232.3 96.1" style="enable-background:new 0 0 232.3 96.1;" xml:space="preserve">
<style type="text/css">
	.st0{fill:#FFFFFF;}
	.st1{fill:#FF182C;}
	.st2{fill:#013171;}
</style>
<g>
	<g>
		<rect x="2.5" y="2.3" class="st0" width="228" height="65.5"/>
		<path class="st1" d="M225.5,7.2h-159c0,0,0,0.1-0.1,0.1c-6.2,7.7-10,17.5-10,28.2c0,10.4,3.5,19.9,9.4,27.5h159.6L225.5,7.2
			L225.5,7.2z"/>
		<path class="st2" d="M60.1,7.6c0.1-0.1,0.1-0.2,0.2-0.4H7.5V63h52.2c-5.2-7.9-8.3-17.3-8.3-27.5C51.5,25.1,54.7,15.5,60.1,7.6"/>
		<path class="st0" d="M26.8,52.2c-5.9-1-10.8-5.1-13-10.5h15.9v-2.3H15.4c3.1-3.7,4.9-8.3,4.9-13.4c0-1.1-0.1-2.2-0.2-3.3h20.2
			c2.3,3.4,3.6,7.4,3.6,11.8c0,1.6-0.2,3.3-0.5,4.9H31.8v2.3h13.5c-1.4,3.5-3.9,6.3-7.1,8.2c0,0,0,0.1,0,0c0-0.8-0.3-1.9-0.7-2.4
			s-1.1-0.9-1.8-0.9c-1,0-1.9,0.7-2.2,1.6c-0.8,2.4-3.1,4.1-5.8,4.1C27.4,52.3,27.1,52.2,26.8,52.2 M27.7,50.5
			c1.8,0,3.5-1.2,4.1-2.9s2.2-2.8,3.9-2.8c1.2,0,2.4,0.5,3.2,1.5c0.2,0.2,0.3,0.4,0.4,0.7c1.2-1,2.3-2.2,3.1-3.5H16.7
			c2.3,3.7,6,6.2,10.4,7l0,0l0,0l0,0C27.3,50.5,27.5,50.5,27.7,50.5 M22.1,25.9c0,4.2-1.1,8.2-3.3,11.7h23c0.2-1,0.2-2.1,0.2-3.1
			c0-3.5-1-7-2.8-10H22C22.1,25,22.1,25.4,22.1,25.9"/>
		<path class="st0" d="M28.3,21.2c-0.7,0-3-0.5-3.6-1.5c1,0.6,3.3-0.1,3.9-0.4c0.4-0.2,1.7-1.6,3.3-1.3v3.6
			C30.7,20.6,28.8,21.2,28.3,21.2"/>
		<path class="st0" d="M29.1,34.8c0.7-0.8,1-1.6,1-2.1c0-0.2-0.1-0.4-0.2-0.5c-0.5-0.4-1.5-0.1-2.6,0.8v-3.7
			c1.1,0.9,2.2,1.3,2.7,0.8c0.1-0.1,0.2-0.3,0.2-0.6c0-0.5-0.4-1.3-1-2h3.7c-0.7,0.8-1,1.6-1,2.1c0,0.2,0.1,0.4,0.2,0.5
			c0.4,0.4,1.5,0.1,2.6-0.8V33c-1.1-0.9-2.2-1.3-2.7-0.8c-0.1,0.1-0.2,0.3-0.2,0.5c0,0.5,0.4,1.3,1,2L29.1,34.8L29.1,34.8z"/>
		<path class="st0" d="M124.8,17.3v2.1h0.4c0.7,0,1.1-0.1,1.3-0.2c0.2-0.2,0.3-0.4,0.3-0.7c0-0.4-0.1-0.6-0.4-0.8
			c-0.3-0.2-0.7-0.3-1.3-0.3h-0.3V17.3z M124.8,14.3V16h0.3c0.4,0,0.7-0.1,0.9-0.2c0.2-0.2,0.3-0.4,0.3-0.6c0-0.3-0.1-0.4-0.3-0.6
			c-0.2-0.1-0.4-0.2-0.8-0.2L124.8,14.3L124.8,14.3z M123.3,20.9v-8.2h1.3c0.7,0,1.3,0,1.6,0.1c0.5,0.1,0.9,0.4,1.2,0.7
			c0.3,0.4,0.4,0.8,0.4,1.2c0,0.3-0.1,0.6-0.2,0.8s-0.3,0.5-0.6,0.7c0.5,0.2,0.9,0.5,1.1,0.9s0.3,0.8,0.3,1.2c0,0.5-0.1,0.9-0.4,1.3
			c-0.2,0.4-0.5,0.7-0.9,0.8c-0.4,0.2-0.9,0.3-1.6,0.3h-2.2V20.9z"/>
		<path class="st0" d="M132.7,14.9l-1.1,2.8h2.2L132.7,14.9z M131.9,12.8h1.6l3.1,8.2H135l-0.6-1.7h-3.3l-0.7,1.7h-1.6L131.9,12.8z"
			/>
		<polygon class="st0" points="137.8,12.8 139.2,12.8 142.3,17.9 142.3,12.8 143.8,12.8 143.8,20.9 142.4,20.9 139.3,15.9 
			139.3,20.9 137.8,20.9 		"/>
		<path class="st0" d="M152.8,14.2l-1.1,1c-0.7-0.8-1.6-1.2-2.5-1.2c-0.8,0-1.4,0.3-2,0.8c-0.5,0.5-0.8,1.2-0.8,2
			c0,0.5,0.1,1,0.3,1.4s0.6,0.8,1,1s0.9,0.4,1.4,0.4c0.4,0,0.9-0.1,1.2-0.2c0.4-0.2,0.8-0.5,1.2-0.9l1,1.1c-0.6,0.6-1.2,1-1.7,1.2
			s-1.1,0.3-1.8,0.3c-1.3,0-2.3-0.4-3.1-1.2c-0.8-0.8-1.2-1.8-1.2-3.1c0-0.8,0.2-1.5,0.6-2.2c0.4-0.6,0.9-1.1,1.6-1.5
			c0.7-0.4,1.4-0.6,2.2-0.6c0.7,0,1.3,0.1,1.9,0.4C151.8,13.3,152.4,13.7,152.8,14.2"/>
		<path class="st0" d="M157.9,14.1c-0.8,0-1.4,0.3-1.9,0.8s-0.8,1.2-0.8,2c0,0.9,0.3,1.6,1,2.1c0.5,0.4,1.1,0.6,1.7,0.6
			c0.7,0,1.4-0.3,1.9-0.8s0.8-1.2,0.8-2c0-0.8-0.3-1.4-0.8-2C159.3,14.3,158.6,14.1,157.9,14.1 M157.9,12.6c1.2,0,2.1,0.4,3,1.3
			c0.8,0.8,1.2,1.8,1.2,3s-0.4,2.2-1.2,3s-1.8,1.2-3,1.2s-2.2-0.4-3-1.3c-0.8-0.8-1.2-1.8-1.2-3c0-0.8,0.2-1.5,0.6-2.1
			c0.4-0.7,0.9-1.2,1.5-1.6C156.5,12.8,157.2,12.6,157.9,12.6"/>
		<path class="st0" d="M88.3,28.4l-2.8,2.7c-1.9-2-4-3-6.4-3c-2,0-3.7,0.7-5.1,2.1s-2.1,3-2.1,5c0,1.4,0.3,2.6,0.9,3.7
			c0.6,1.1,1.5,1.9,2.6,2.6c1.1,0.6,2.3,0.9,3.7,0.9c1.2,0,2.2-0.2,3.2-0.6c1-0.4,2-1.2,3.2-2.4l2.7,2.8c-1.6,1.5-3,2.6-4.4,3.1
			c-1.4,0.6-3,0.9-4.7,0.9c-3.3,0-5.9-1-8-3.1S68,38.4,68,35.2c0-2.1,0.5-3.9,1.4-5.6c0.9-1.6,2.3-2.9,4.1-3.9
			c1.8-1,3.7-1.5,5.7-1.5c1.7,0,3.4,0.4,5,1.1C85.8,26.1,87.2,27.1,88.3,28.4"/>
		<path class="st0" d="M101.7,28.1c-1.9,0-3.6,0.7-4.9,2c-1.3,1.4-2,3.1-2,5.2c0,2.3,0.8,4.2,2.5,5.5c1.3,1.1,2.8,1.6,4.4,1.6
			c1.9,0,3.5-0.7,4.8-2.1c1.3-1.4,2-3.1,2-5.1s-0.7-3.7-2-5.1C105.2,28.8,103.6,28.1,101.7,28.1 M101.8,24.2c3,0,5.5,1.1,7.6,3.2
			c2.1,2.2,3.2,4.8,3.2,7.9c0,3.1-1,5.6-3.2,7.8c-2.1,2.1-4.7,3.2-7.7,3.2c-3.1,0-5.8-1.1-7.8-3.3c-2.1-2.2-3.1-4.8-3.1-7.8
			c0-2,0.5-3.8,1.5-5.5s2.3-3,4-4C98,24.7,99.8,24.2,101.8,24.2"/>
		<polygon class="st0" points="116.3,24.7 120.3,24.7 120.3,41.9 126.2,41.9 126.2,45.7 116.3,45.7 		"/>
		<path class="st0" d="M129.1,24.7h4v13.6c0,1.2,0.1,2,0.3,2.5s0.5,0.9,1,1.2s1,0.4,1.7,0.4s1.3-0.2,1.9-0.5
			c0.5-0.3,0.9-0.7,1.1-1.2c0.2-0.5,0.3-1.5,0.3-2.9V24.7h4v12.5c0,2.1-0.1,3.6-0.4,4.4c-0.2,0.8-0.7,1.6-1.4,2.4
			c-0.7,0.8-1.5,1.3-2.3,1.7c-0.9,0.4-1.9,0.5-3.1,0.5c-1.5,0-2.9-0.3-4-1s-1.9-1.6-2.4-2.6c-0.5-1.1-0.7-2.8-0.7-5.3L129.1,24.7
			L129.1,24.7z"/>
		<polyline class="st0" points="169.6,41.7 170.3,45.7 166.4,45.7 164.2,32.5 159.7,45.7 156.2,45.7 151.8,32.5 149.4,45.7 
			145.6,45.7 149.3,24.7 153.1,24.7 158,39.4 162.8,24.7 166.7,24.7 169.6,41.7 		"/>
		<path class="st0" d="M177.7,36.5v5.4h1c1.7,0,2.8-0.2,3.4-0.6c0.6-0.4,0.9-1,0.9-1.8c0-0.9-0.3-1.6-1-2.1s-1.8-0.8-3.4-0.8h-0.9
			V36.5z M177.7,28.6V33h0.9c1,0,1.7-0.2,2.2-0.6c0.5-0.4,0.7-1,0.7-1.7c0-0.6-0.2-1.2-0.7-1.5c-0.5-0.4-1.2-0.6-2.1-0.6H177.7z
			 M173.7,45.7v-21h3.3c1.9,0,3.3,0.1,4.2,0.4c1.3,0.3,2.3,0.9,3,1.8s1.1,2,1.1,3.2c0,0.8-0.2,1.5-0.5,2.2c-0.3,0.6-0.9,1.3-1.6,1.8
			c1.3,0.6,2.2,1.3,2.8,2.3c0.6,0.9,0.9,2,0.9,3.2s-0.3,2.3-0.9,3.2c-0.6,1-1.4,1.7-2.4,2.2s-2.3,0.7-4,0.7H173.7z"/>
		<rect x="190" y="24.7" class="st0" width="4" height="21"/>
		<path class="st0" d="M207.2,30.3l-2.9,7.2h5.7L207.2,30.3z M205.2,24.7h4l8.1,21h-4.2l-1.6-4.3h-8.6l-1.7,4.3H197L205.2,24.7z"/>
		<path class="st0" d="M56.3,35.3c0-10.7,3.7-20.5,10-28.2h-6.2c-5.5,8-8.8,17.7-8.8,28.2c0,10.3,3.1,19.9,8.5,27.8H66
			C59.9,55.5,56.3,45.8,56.3,35.3"/>
	</g>
	<g>
		<path class="st2" d="M11.8,80.7v11.5H8.7V80.7H4.3v-2.9h11.9v2.9H11.8z"/>
		<path class="st2" d="M24.7,92.4c-3.9,0-6.2-2.2-6.2-6.4v-8.2h3.2V86c0,2.3,1.2,3.6,3.1,3.6s3.1-1.2,3.1-3.5v-8.3H31v8.1
			C31,90.3,28.5,92.4,24.7,92.4z"/>
		<path class="st2" d="M46,87.9h-2.4v4.3h-3.2V77.8h5.9c3.4,0,5.5,2,5.5,5l0,0C51.8,86.1,49.2,87.9,46,87.9z M48.6,82.8
			c0-1.4-1-2.2-2.6-2.2h-2.5V85H46C47.7,85,48.6,84.1,48.6,82.8L48.6,82.8z"/>
		<path class="st2" d="M62.9,92.2l-3.1-4.6h-2.5v4.6h-3.2V77.8h6.6c3.4,0,5.4,1.8,5.4,4.8l0,0c0,2.3-1.3,3.8-3.1,4.5l3.5,5.2h-3.6
			V92.2z M63,82.7c0-1.4-0.9-2.1-2.5-2.1h-3.2v4.1h3.2C62.1,84.8,63,83.9,63,82.7L63,82.7z"/>
		<path class="st2" d="M69.2,92.2V77.8h3.2v14.4C72.4,92.2,69.2,92.2,69.2,92.2z"/>
		<path class="st2" d="M87.2,92.2v-9.4L83.1,89H83l-4-6.1v9.4h-3V77.8h3.4l3.8,6.1l3.8-6.1h3.4v14.4C90.4,92.2,87.2,92.2,87.2,92.2z
			"/>
		<path class="st2" d="M93.8,92.2V77.8h10.9v2.8H97v2.9h6.8v2.8H97v3h7.8v2.8L93.8,92.2L93.8,92.2z"/>
		<path class="st2" d="M116.4,92.2l-3.1-4.6h-2.5v4.6h-3.2V77.8h6.6c3.4,0,5.4,1.8,5.4,4.8l0,0c0,2.3-1.3,3.8-3.1,4.5l3.5,5.2h-3.6
			V92.2z M116.5,82.7c0-1.4-0.9-2.1-2.5-2.1h-3.2v4.1h3.2C115.6,84.8,116.5,83.9,116.5,82.7L116.5,82.7z"/>
		<path class="st2" d="M133.3,92.2L132,89h-6.1l-1.3,3.2h-3.2l6.2-14.5h2.9l6.2,14.5H133.3z M128.9,81.5l-1.9,4.7h3.8L128.9,81.5z"
			/>
		<path class="st2" d="M152,92.4c-4.5,0-7.6-3.3-7.6-7.4l0,0c0-4.1,3.2-7.5,7.7-7.5c4.4,0,7.6,3.3,7.6,7.4l0,0
			C159.7,89.1,156.4,92.4,152,92.4z M156.3,85c0-2.5-1.8-4.5-4.4-4.5c-2.6,0-4.3,2-4.3,4.5l0,0c0,2.5,1.8,4.5,4.4,4.5
			C154.6,89.5,156.3,87.5,156.3,85L156.3,85z"/>
		<path class="st2" d="M168.1,87.9h-2.4v4.3h-3.2V77.8h5.9c3.4,0,5.5,2,5.5,5l0,0C173.9,86.1,171.3,87.9,168.1,87.9z M170.7,82.8
			c0-1.4-1-2.2-2.6-2.2h-2.5V85h2.5C169.8,85,170.7,84.1,170.7,82.8L170.7,82.8z"/>
		<path class="st2" d="M183,92.4c-4.2,0-7.4-3.3-7.4-7.4l0,0c0-4.1,3.1-7.5,7.5-7.5c2.7,0,4.3,0.9,5.7,2.2l-2,2.3
			c-1.1-1-2.2-1.6-3.7-1.6c-2.4,0-4.2,2-4.2,4.5l0,0c0,2.5,1.7,4.5,4.2,4.5c1.6,0,2.7-0.7,3.8-1.7l2,2
			C187.4,91.4,185.8,92.4,183,92.4z"/>
		<path class="st2" d="M191.6,92.2V77.8h3.2v14.4C194.8,92.2,191.6,92.2,191.6,92.2z"/>
		<path class="st2" d="M205.4,92.4c-4.5,0-7.6-3.3-7.6-7.4l0,0c0-4.1,3.2-7.5,7.7-7.5s7.6,3.3,7.6,7.4l0,0
			C213,89.1,209.8,92.4,205.4,92.4z M209.7,85c0-2.5-1.8-4.5-4.4-4.5c-2.6,0-4.3,2-4.3,4.5l0,0c0,2.5,1.8,4.5,4.4,4.5
			S209.7,87.5,209.7,85L209.7,85z M204.3,76.6l2.3-3.6l2.7,1.2l-2.6,2.5L204.3,76.6L204.3,76.6z"/>
		<path class="st2" d="M226,92.2l-7-9.2v9.2h-3.1V77.8h2.9l6.8,8.9v-8.9h3.1v14.4C228.7,92.2,226,92.2,226,92.2z"/>
	</g>
</g>
</svg>
