<?xml version="1.0" encoding="utf-8"?>
<!-- Generator: Adobe Illustrator 22.0.1, SVG Export Plug-In . SVG Version: 6.00 Build 0)  -->
<svg version="1.1" id="Capa_1" xmlns="http://www.w3.org/2000/svg" xmlns:xlink="http://www.w3.org/1999/xlink" x="0px" y="0px"
	 viewBox="0 0 307.1 57.4" style="enable-background:new 0 0 307.1 57.4;" xml:space="preserve">
<style type="text/css">
	.st0{fill:#FF182C;}
	.st1{fill:#013171;}
</style>
<g>
	<path class="st0" d="M11.3,17.1c0,1.5-0.4,2.7-1.3,3.6c-0.9,0.9-2,1.4-3.3,1.4s-2.5-0.5-3.4-1.4s-1.4-2.1-1.4-3.6
		c0-1.4,0.5-2.5,1.4-3.5c0.9-0.9,2-1.4,3.4-1.4c1.3,0,2.5,0.5,3.3,1.4C10.8,14.6,11.3,15.7,11.3,17.1z M10,48l0.3,7.2H3L3.2,48
		l1-21.5H9L10,48z"/>
	<path class="st0" d="M21,2.7h13.8c2.3,0,4.4,0.2,6.3,0.6C43,3.7,44.7,4.4,46,5.4c1.4,1,2.5,2.3,3.2,3.9c0.8,1.6,1.2,3.6,1.2,6
		c0,2.3-0.4,4.2-1.2,5.9c-0.8,1.7-1.9,3.1-3.3,4.2c-1.4,1.1-3.1,1.9-5,2.5c-1.9,0.5-4,0.8-6.1,0.8h-6.5v15.1H21V2.7z M34.3,23
		c3.1,0,5.4-0.6,6.9-1.9c1.5-1.2,2.2-3.1,2.2-5.6c0-2.6-0.8-4.4-2.3-5.4s-3.8-1.5-6.8-1.5h-5.9V23H34.3z"/>
	<path class="st0" d="M57.4,2.7h24.7v6.2H64.7v10.5h14.8v6.2H64.7v12.1h18.1v6.2H57.4L57.4,2.7L57.4,2.7z"/>
	<path class="st0" d="M90.4,2.7h11c6.3,0,11.2,1.7,14.8,5.1c3.5,3.4,5.3,8.5,5.3,15.3c0,3.4-0.5,6.4-1.4,9s-2.2,4.8-3.9,6.5
		s-3.8,3.1-6.2,3.9c-2.4,0.9-5.2,1.3-8.2,1.3H90.5L90.4,2.7L90.4,2.7z M100.9,38c4.2,0,7.4-1.2,9.7-3.6c2.3-2.4,3.4-6.2,3.4-11.2
		s-1.1-8.7-3.4-11c-2.3-2.3-5.5-3.5-9.7-3.5h-3.1V38H100.9z"/>
	<path class="st0" d="M129,2.7h7.3v41.2H129V2.7z"/>
	<path class="st0" d="M145.9,2.7h7.3v35h17.1v6.2h-24.4L145.9,2.7L145.9,2.7z"/>
	<path class="st0" d="M190.8,44.7c-2.7,0-5.1-0.5-7.4-1.5c-2.2-1-4.1-2.4-5.8-4.3c-1.6-1.9-2.9-4.1-3.7-6.8c-0.9-2.6-1.3-5.6-1.3-9
		c0-3.3,0.4-6.3,1.3-8.9c0.9-2.6,2.1-4.8,3.7-6.6c1.6-1.8,3.5-3.2,5.8-4.2c2.2-1,4.7-1.4,7.4-1.4s5.1,0.5,7.4,1.4
		c2.2,1,4.1,2.4,5.7,4.2c1.6,1.8,2.8,4,3.7,6.6s1.3,5.6,1.3,8.9c0,3.4-0.4,6.4-1.3,9c-0.9,2.6-2.1,4.9-3.7,6.8
		c-1.6,1.9-3.5,3.3-5.7,4.3C195.9,44.2,193.4,44.7,190.8,44.7z M190.8,38.3c1.6,0,3.1-0.4,4.4-1.1c1.3-0.7,2.4-1.7,3.4-3.1
		c0.9-1.3,1.6-2.9,2.1-4.8c0.5-1.9,0.8-4,0.8-6.3c0-4.6-1-8.2-2.9-10.9c-1.9-2.6-4.5-3.9-7.7-3.9c-3.3,0-5.9,1.3-7.8,3.9
		c-1.9,2.6-2.9,6.2-2.9,10.9c0,2.3,0.3,4.4,0.8,6.3c0.5,1.9,1.2,3.5,2.2,4.8c0.9,1.3,2.1,2.3,3.4,3.1
		C187.7,38,189.1,38.3,190.8,38.3z"/>
	<path class="st1" d="M235.5,28.6L223.1,2.7h7.8l4.5,10.5c0.6,1.6,1.2,3.1,1.8,4.5s1.2,3,1.9,4.6h0.3c0.7-1.6,1.3-3.1,2-4.6
		c0.7-1.4,1.3-2.9,1.9-4.5l4.5-10.5h7.6L243,28.6v15.3h-7.3V28.6H235.5z"/>
	<path class="st1" d="M277.4,32.8h-13.8l-3.2,11.1h-7.5l13.5-41.2h8.6l13.4,41.2h-7.7L277.4,32.8z M275.8,27l-1.4-5
		c-0.6-2.2-1.3-4.4-1.9-6.7c-0.6-2.3-1.2-4.6-1.8-6.9h-0.3c-0.6,2.3-1.2,4.6-1.8,6.9c-0.6,2.3-1.2,4.5-1.9,6.7l-1.4,5H275.8z"/>
	<path class="st1" d="M292.7,39.8c0-1.4,0.5-2.6,1.4-3.5s2-1.4,3.4-1.4c1.3,0,2.5,0.5,3.3,1.4c0.9,0.9,1.3,2.1,1.3,3.5
		s-0.4,2.6-1.3,3.5c-0.9,0.9-2,1.4-3.3,1.4s-2.5-0.5-3.4-1.4C293.2,42.4,292.7,41.2,292.7,39.8z M294,8.9l-0.2-7.2h7.3l-0.3,7.2
		l-1,21.5H295L294,8.9z"/>
</g>
</svg>
